<svg width="128" height="35" viewBox="0 0 128 35" fill="none" xmlns="http://www.w3.org/2000/svg">
<path d="M62.8741 0.288963V20.5163C62.8731 20.5927 62.8427 20.6656 62.7894 20.7196C62.7361 20.7735 62.6641 20.8043 62.5887 20.8053H60.5107C60.0338 20.8057 59.5644 20.6849 59.1455 20.454C58.7266 20.2231 58.3716 19.8895 58.1131 19.4838L48.6823 4.72743L49.0058 12.0979V20.5163C49.0048 20.5927 48.9744 20.6656 48.9211 20.7196C48.8678 20.7735 48.7958 20.8043 48.7204 20.8053H45.9726C45.8972 20.8043 45.8251 20.7735 45.7718 20.7196C45.7185 20.6656 45.6881 20.5927 45.6871 20.5163V0.288963C45.6881 0.212635 45.7185 0.139715 45.7718 0.0857387C45.8251 0.0317625 45.8972 0.00099787 45.9726 0H48.0391C48.5155 0.000256501 48.9843 0.120905 49.403 0.351002C49.8217 0.581099 50.177 0.913365 50.4368 1.31767L59.8675 16.0509L59.5745 8.7074V0.288963C59.5745 0.212325 59.6046 0.138826 59.6581 0.0846349C59.7116 0.030444 59.7842 0 59.8599 0H62.6077C62.6797 0.00577155 62.747 0.0386312 62.7963 0.09211C62.8457 0.145589 62.8734 0.215813 62.8741 0.288963Z" fill="#3F4246"/>
<path d="M91.1315 20.8053H88.2533C88.2083 20.8048 88.1641 20.7934 88.1243 20.772C88.0845 20.7505 88.0503 20.7197 88.0245 20.682C87.9987 20.6443 87.9821 20.6009 87.976 20.5553C87.97 20.5097 87.9746 20.4633 87.9896 20.42L95.6145 0.27767C95.6471 0.193334 95.7044 0.121393 95.7786 0.0717241C95.8528 0.0220553 95.9402 -0.00290584 96.0288 0.000269363H99.6341C99.7195 0.00102266 99.8028 0.0278207 99.8732 0.0772355C99.9437 0.12665 99.9982 0.196436 100.03 0.27767L107.632 20.42C107.647 20.4633 107.652 20.5097 107.645 20.5553C107.639 20.6009 107.623 20.6443 107.597 20.682C107.571 20.7197 107.537 20.7505 107.497 20.772C107.457 20.7934 107.413 20.8048 107.368 20.8053H104.49C104.432 20.8055 104.376 20.788 104.328 20.755C104.281 20.722 104.244 20.6751 104.223 20.6203L98.0782 4.05339C98.0584 3.9976 98.0223 3.94941 97.9748 3.91535C97.9273 3.88129 97.8706 3.86302 97.8126 3.86302C97.7546 3.86302 97.698 3.88129 97.6505 3.91535C97.6029 3.94941 97.5668 3.9976 97.547 4.05339L91.4027 20.6203C91.3813 20.6757 91.3438 20.7231 91.2953 20.7561C91.2469 20.7892 91.1897 20.8063 91.1315 20.8053Z" fill="#3F4246"/>
<path d="M127.932 20.3128L122.185 12.8518C125.429 12.2285 127.326 10.0044 127.326 6.59136C127.326 2.6704 124.816 0 120.375 0H112.36C112.247 0 112.139 0.0454047 112.06 0.126225C111.98 0.207046 111.936 0.316661 111.936 0.430958C111.936 0.794779 112.006 1.15504 112.143 1.49116C112.28 1.82729 112.481 2.1327 112.734 2.38996C112.987 2.64722 113.288 2.85129 113.618 2.99052C113.949 3.12975 114.304 3.20141 114.662 3.20141H120.042C122.726 3.20141 124.013 4.59818 124.013 6.61445C124.013 8.63072 122.756 10.0775 120.042 10.0775H112.36C112.247 10.0785 112.139 10.1248 112.06 10.2062C111.98 10.2876 111.936 10.3977 111.936 10.5123V20.5167C111.936 20.5933 111.965 20.6667 112.019 20.7208C112.072 20.7749 112.144 20.8053 112.22 20.8053H114.953C115.028 20.8043 115.1 20.7736 115.153 20.7197C115.206 20.6658 115.236 20.5929 115.237 20.5167V13.0327H118.391L123.377 19.6471C123.644 20.0011 123.988 20.2874 124.382 20.4836C124.776 20.6799 125.21 20.7808 125.649 20.7784H127.724C127.775 20.7755 127.825 20.7582 127.868 20.7284C127.911 20.6987 127.945 20.6576 127.966 20.6096C127.988 20.5617 127.996 20.5086 127.99 20.4563C127.984 20.404 127.964 20.3543 127.932 20.3128Z" fill="#3F4246"/>
<path d="M82.2576 0H69.5775C69.4771 0 69.3808 0.040622 69.3098 0.11293C69.2389 0.185238 69.199 0.28331 69.199 0.385569C69.199 1.13513 69.4913 1.85399 70.0116 2.38401C70.5319 2.91403 71.2376 3.21179 71.9735 3.21179H82.2576C82.295 3.21231 82.3322 3.20518 82.3668 3.19083C82.4015 3.17649 82.433 3.1552 82.4595 3.12825C82.4859 3.10129 82.5068 3.06921 82.5209 3.03389C82.535 2.99857 82.542 2.96073 82.5415 2.92261V0.289177C82.5415 0.212482 82.5116 0.138929 82.4583 0.0846977C82.4051 0.0304665 82.3329 0 82.2576 0ZM82.2576 17.6089H72.7948C72.7198 17.6079 72.6482 17.5772 72.5952 17.5231C72.5421 17.4691 72.5119 17.3961 72.5109 17.3198V12.0992C72.5109 12.0225 72.5409 11.9489 72.5941 11.8947C72.6473 11.8404 72.7195 11.81 72.7948 11.81H81.5422C81.6175 11.81 81.6897 11.7795 81.7429 11.7253C81.7962 11.6711 81.8261 11.5975 81.8261 11.5208V8.86809C81.8261 8.79139 81.7962 8.71784 81.7429 8.66361C81.6897 8.60938 81.6175 8.57891 81.5422 8.57891H69.6229C69.5101 8.57993 69.4023 8.62628 69.3229 8.70788C69.2435 8.78948 69.199 8.89971 69.199 9.0146V20.3735C69.199 20.488 69.2436 20.5978 69.3231 20.6788C69.4026 20.7598 69.5105 20.8053 69.6229 20.8053H82.2576C82.3329 20.8053 82.4051 20.7748 82.4583 20.7206C82.5116 20.6664 82.5415 20.5928 82.5415 20.5161V17.8827C82.5385 17.8084 82.5072 17.7382 82.4542 17.687C82.4011 17.6359 82.3306 17.6079 82.2576 17.6089Z" fill="#3F4246"/>
<path d="M27.2097 1.73402L20.121 12.3312C20.0061 12.4842 19.953 12.6753 19.9723 12.8661C19.9917 13.0569 20.082 13.2332 20.2252 13.3596C20.3683 13.4861 20.5537 13.5532 20.744 13.5475C20.9343 13.5419 21.1155 13.4638 21.251 13.3291L28.2266 7.25837C28.2669 7.22122 28.317 7.19677 28.3709 7.18807C28.4248 7.17937 28.48 7.18679 28.5298 7.20942C28.5795 7.23204 28.6215 7.26887 28.6507 7.31534C28.6798 7.36182 28.6948 7.41588 28.6937 7.47084V26.5519C28.6931 26.6098 28.675 26.6662 28.6418 26.7135C28.6086 26.7607 28.5618 26.7967 28.5078 26.8165C28.4537 26.8363 28.395 26.839 28.3393 26.8242C28.2837 26.8095 28.2339 26.778 28.1965 26.734L7.10374 1.31286C6.76701 0.90475 6.34574 0.575772 5.86946 0.348993C5.39318 0.122214 4.87342 0.00312416 4.34662 7.12217e-05H3.61214C2.65414 7.12217e-05 1.73538 0.383426 1.05797 1.0658C0.380563 1.74818 0 2.67368 0 3.63871V30.5092C0 31.4742 0.380563 32.3997 1.05797 33.0821C1.73538 33.7645 2.65414 34.1478 3.61214 34.1478C4.22941 34.1478 4.83636 33.9883 5.37508 33.6848C5.9138 33.3812 6.3663 32.9437 6.68942 32.4139L13.7781 21.8167C13.893 21.6637 13.9461 21.4727 13.9267 21.2819C13.9074 21.0911 13.8171 20.9147 13.6739 20.7883C13.5308 20.6618 13.3454 20.5947 13.1551 20.6004C12.9648 20.606 12.7836 20.6841 12.6481 20.8188L5.67245 26.8895C5.63223 26.9267 5.58207 26.9511 5.52819 26.9598C5.47431 26.9685 5.41908 26.9611 5.36935 26.9385C5.31961 26.9159 5.27757 26.879 5.24842 26.8326C5.21928 26.7861 5.20432 26.732 5.20539 26.6771V7.61502C5.20596 7.55709 5.22407 7.50072 5.2573 7.45343C5.29052 7.40614 5.33728 7.3702 5.39133 7.3504C5.44538 7.3306 5.50414 7.32789 5.55976 7.34263C5.61538 7.35738 5.66521 7.38887 5.70258 7.4329L26.7954 32.854C27.1346 33.2585 27.5575 33.5834 28.0343 33.8062C28.5112 34.029 29.0306 34.1443 29.5562 34.144H30.3096C30.7839 34.144 31.2536 34.0499 31.6919 33.8671C32.1301 33.6842 32.5283 33.4162 32.8637 33.0783C33.1991 32.7404 33.4652 32.3393 33.6467 31.8979C33.8283 31.4564 33.9217 30.9832 33.9217 30.5054V3.63871C33.9217 3.15895 33.8275 2.68393 33.6446 2.24098C33.4617 1.79803 33.1936 1.3959 32.8557 1.05772C32.5179 0.719543 32.1171 0.451999 31.6762 0.270485C31.2353 0.0889708 30.7632 -0.00293037 30.287 7.12217e-05C29.6697 0.000145819 29.0627 0.159564 28.524 0.463114C27.9853 0.766664 27.5328 1.20422 27.2097 1.73402Z" fill="#3F4246"/>
<path fill-rule="evenodd" clip-rule="evenodd" d="M45.712 31.5421V34.0356C45.712 34.0527 45.7261 34.0666 45.7434 34.0666H48.4291C49.0271 34.0666 49.5111 33.8887 49.846 33.5618C50.1809 33.2348 50.3537 32.7713 50.3537 32.2252C50.3537 31.6204 50.0683 31.1025 49.542 30.8081C49.8757 30.5418 50.0686 30.1224 50.0686 29.6254C50.0686 29.1949 49.9094 28.7676 49.5933 28.4475C49.2761 28.1261 48.8076 27.9196 48.2027 27.9196H47.2243C46.8231 27.9196 46.4472 28.0115 46.1684 28.2146C45.885 28.421 45.712 28.7356 45.712 29.1529V29.6336C45.712 29.941 45.9636 30.1903 46.2741 30.1903C46.5845 30.1903 46.8361 29.941 46.8361 29.6336V29.2205C46.8361 29.1477 46.851 29.103 46.869 29.0745C46.8865 29.0467 46.913 29.0247 46.9541 29.0072C47.045 28.9686 47.1813 28.9615 47.3646 28.9615H48.1901C48.4271 28.9615 48.6127 29.0355 48.738 29.1518C48.8628 29.2677 48.9362 29.4332 48.9362 29.6336C48.9362 29.8626 48.8537 30.0346 48.7252 30.1502C48.5953 30.2671 48.4093 30.3345 48.1901 30.3345H46.9313C46.2578 30.3345 45.712 30.8753 45.712 31.5421ZM46.8361 33.0165V31.6965C46.8361 31.5197 46.9808 31.3765 47.1591 31.3765H48.3494C48.6235 31.3765 48.8399 31.4691 48.9874 31.615C49.1353 31.7612 49.2213 31.9679 49.2213 32.2088C49.2213 32.4643 49.1237 32.6625 48.9648 32.7984C48.8042 32.9358 48.5723 33.0165 48.2949 33.0165H46.8361Z" fill="#3F4246"/>
<path fill-rule="evenodd" clip-rule="evenodd" d="M124.819 31.2436L124.819 31.2437L126.247 31.6667L126.247 31.6668C126.442 31.7258 126.589 31.7991 126.687 31.8916C126.779 31.9787 126.833 32.0888 126.833 32.246C126.833 32.4618 126.724 32.6387 126.532 32.7681C126.336 32.8998 126.058 32.9776 125.747 32.9776C125.288 32.9776 124.94 32.7175 124.692 32.4183C124.507 32.194 124.229 32.0487 123.942 32.0969C123.566 32.16 123.302 32.5259 123.477 32.8641C123.872 33.6262 124.695 34.0666 125.701 34.0666C126.301 34.0666 126.871 33.914 127.297 33.6012C127.727 33.2847 128 32.8089 128 32.1916C128 31.5897 127.738 31.2017 127.404 30.9509C127.079 30.7072 126.69 30.5959 126.434 30.5245L126.433 30.5244L125.404 30.2332L125.403 30.2329C125.205 30.1786 125.012 30.1152 124.869 30.018C124.733 29.9258 124.654 29.8125 124.654 29.647C124.654 29.4721 124.745 29.316 124.915 29.1988C125.088 29.0803 125.336 29.0072 125.62 29.0125L125.621 29.0125C125.982 29.0169 126.302 29.1496 126.516 29.3808C126.736 29.6191 127.031 29.8523 127.351 29.7948C127.682 29.7353 127.905 29.4059 127.752 29.1065C127.605 28.8199 127.403 28.5787 127.153 28.39C126.749 28.086 126.23 27.9257 125.637 27.9196L125.636 27.9196C125.049 27.9175 124.512 28.0654 124.117 28.364C123.718 28.6662 123.475 29.1159 123.475 29.6859C123.475 30.1847 123.662 30.5377 123.933 30.7849C124.197 31.0266 124.531 31.1595 124.819 31.2436Z" fill="#3F4246"/>
<path d="M114.149 28.1705L113.225 29.5225C113.212 29.5424 113.206 29.5663 113.209 29.59C113.213 29.6136 113.224 29.6353 113.243 29.6511C113.261 29.6669 113.284 29.6757 113.309 29.6759C113.333 29.676 113.357 29.6676 113.375 29.652L114.04 29.0898V31.8473L111.652 28.244C111.518 28.0414 111.291 27.9196 111.048 27.9196C110.648 27.9196 110.323 28.244 110.323 28.6443V34.0666H111.515V30.1353L113.903 33.742C114.037 33.9447 114.264 34.0666 114.507 34.0666C114.907 34.0666 115.231 33.7422 115.231 33.342V28.5154C115.231 28.1863 114.965 27.9196 114.636 27.9196C114.62 27.9196 114.604 27.9202 114.588 27.9214L114.589 27.9196C114.506 27.9195 114.424 27.9402 114.352 27.9797C114.28 28.0191 114.193 28.1016 114.149 28.1705Z" fill="#3F4246"/>
<path d="M83.7239 27.9197V34.0668H84.8917V32.1904C84.8917 31.962 85.1719 31.8524 85.3269 32.0201L87.2174 34.0668H88.7419L86.0079 31.091C85.9205 30.9958 85.9197 30.8499 86.0059 30.7537L88.548 27.9197H87.0597L85.3301 29.8668C85.1769 30.0393 84.8917 29.9309 84.8917 29.7001V27.9197H83.7239Z" fill="#3F4246"/>
<path d="M71.9359 27.9197V32.8123C71.9359 33.5051 72.4976 34.0668 73.1904 34.0668H75.6994C75.6994 33.442 75.193 32.9355 74.5682 32.9355H74.3555C73.6626 32.9355 73.101 32.3739 73.101 31.681V27.9197H71.9359Z" fill="#3F4246"/>
<path d="M60.1751 28.6229C60.313 28.2033 60.7047 27.9197 61.1464 27.9197C61.5881 27.9197 61.9798 28.2033 62.1176 28.6229L63.9063 34.0668H62.6551L62.2193 32.8123L61.3769 30.2417C61.3013 30.0109 60.9747 30.0114 60.8998 30.2424L60.2895 32.1237L60.7604 31.7156C60.7849 31.6945 60.8163 31.683 60.8486 31.6832C60.8809 31.6834 60.9121 31.6953 60.9363 31.7168C60.9606 31.7382 60.9762 31.7677 60.9804 31.7997C60.9846 31.8318 60.977 31.8643 60.9591 31.8912L59.6825 33.9375L59.6384 34.0668H58.3865L60.1751 28.6229Z" fill="#3F4246"/>
<path d="M100.498 28.6229C100.36 28.2033 99.9681 27.9197 99.5265 27.9197C99.0848 27.9197 98.6931 28.2033 98.5552 28.6229L96.7665 34.0668H98.0178L98.4536 32.8123L99.2959 30.2417C99.3715 30.0109 99.6981 30.0114 99.773 30.2424L100.383 32.1237L99.9124 31.7156C99.8879 31.6945 99.8566 31.683 99.8242 31.6832C99.7919 31.6834 99.7607 31.6953 99.7365 31.7168C99.7123 31.7382 99.6966 31.7677 99.6925 31.7997C99.6883 31.8318 99.6959 31.8643 99.7138 31.8912L100.99 33.9375L101.034 34.0668H102.286L100.498 28.6229Z" fill="#3F4246"/>
</svg>
