<?xml version="1.0" encoding="UTF-8"?> <svg xmlns="http://www.w3.org/2000/svg" width="827" height="376" viewBox="0 0 827 376" fill="none"><g clip-path="url(#clip0_189_448)"><path d="M249.654 218.689L249.568 218.413L304.339 168.138V143.914H216.468V168.138H268.953L269.04 168.37L214.804 218.689V242.914H305.221V218.689H249.654Z" fill="white"></path><path d="M359.157 141.607C349.021 141.607 340.76 143.14 334.375 146.205C328.428 148.877 323.418 153.279 319.995 158.84C316.722 164.437 314.666 170.666 313.963 177.116L340.625 180.873C341.59 175.178 343.519 171.14 346.412 168.761C349.701 166.273 353.754 165.016 357.869 165.207C363.28 165.207 367.205 166.658 369.646 169.559C372.062 172.46 373.291 176.478 373.291 181.773V184.413H347.656C334.607 184.413 325.232 187.314 319.533 193.116C313.833 198.918 310.988 206.577 310.998 216.093C310.998 225.84 313.843 233.093 319.533 237.85C325.223 242.609 332.379 244.973 341.002 244.943C351.697 244.943 359.924 241.255 365.681 233.876C369.082 229.342 371.51 224.152 372.813 218.631H373.783L377.458 242.854H401.618V181.512C401.618 168.834 398.285 159.014 391.621 152.051C384.956 145.088 374.135 141.607 359.157 141.607ZM367.606 217.224C363.772 220.43 358.753 222.025 352.503 222.025C347.352 222.025 343.774 221.121 341.768 219.313C340.791 218.457 340.013 217.396 339.49 216.205C338.968 215.015 338.713 213.723 338.745 212.423C338.687 211.196 338.88 209.971 339.31 208.821C339.74 207.672 340.4 206.622 341.247 205.736C342.164 204.874 343.245 204.207 344.427 203.775C345.608 203.344 346.864 203.157 348.119 203.226H373.335V204.894C373.386 207.252 372.896 209.59 371.903 211.728C370.909 213.866 369.439 215.746 367.606 217.224Z" fill="white"></path><path d="M547.693 143.914H519.15V242.927H547.693V143.914Z" fill="white"></path><path d="M716.206 143.914C708.144 143.914 701.788 146.766 697.14 152.472C693.802 156.572 691.266 162.631 689.53 170.647H688.691L684.959 143.914H660.582V242.914H689.126V192.144C689.126 185.742 690.62 180.835 693.61 177.421C696.599 174.008 702.116 172.301 710.16 172.301H720.995V143.914H716.206Z" fill="white"></path><path d="M632.285 147.15C625.621 143.176 617.216 141.193 607.07 141.203C591.099 141.203 578.599 145.763 569.572 154.882C560.544 164.001 556.031 176.572 556.031 192.596C555.801 202.283 557.91 211.883 562.179 220.577C566.087 228.324 572.173 234.753 579.685 239.071C587.245 243.452 596.239 245.647 606.664 245.656C615.682 245.656 623.215 244.264 629.262 241.48C634.947 238.978 639.897 235.057 643.641 230.093C647.207 225.218 649.854 219.732 651.454 213.904L626.86 207C625.826 210.789 623.832 214.247 621.074 217.037C618.295 219.822 613.642 221.215 607.113 221.215C599.35 221.215 593.563 218.986 589.753 214.528C586.99 211.308 585.254 206.71 584.487 200.748H651.831C652.105 197.963 652.249 195.627 652.249 193.742V187.577C652.412 179.295 650.706 171.083 647.259 163.556C644.032 156.699 638.812 150.98 632.285 147.15ZM606.245 164.803C617.819 164.803 624.382 170.514 625.934 181.934H584.993C585.644 178.124 587.218 174.532 589.58 171.476C593.331 167.018 598.887 164.794 606.245 164.803Z" fill="white"></path><path d="M533.727 104.009C531.58 103.936 529.44 104.296 527.434 105.069C525.429 105.841 523.599 107.01 522.053 108.506C520.529 110.016 519.334 111.827 518.544 113.825C517.754 115.823 517.387 117.963 517.467 120.11C517.39 122.271 517.758 124.425 518.548 126.437C519.339 128.45 520.534 130.277 522.059 131.805C523.586 133.334 525.409 134.531 527.416 135.321C529.424 136.111 531.573 136.479 533.727 136.4C535.869 136.481 538.005 136.114 539.997 135.322C541.989 134.53 543.795 133.331 545.301 131.801C546.794 130.255 547.959 128.423 548.727 126.414C549.496 124.404 549.851 122.26 549.77 120.11C549.869 117.973 549.523 115.838 548.752 113.842C547.982 111.847 546.805 110.034 545.297 108.52C543.788 107.007 541.982 105.825 539.992 105.051C538.002 104.276 535.874 103.927 533.742 104.024L533.727 104.009Z" fill="white"></path><path d="M474.772 141.203C465.052 141.203 457.24 144.264 451.337 150.385C446.967 154.92 443.762 161.689 441.717 170.692H440.805L437.073 143.959H412.696V271.375H441.239V218.894H442.281C443.152 222.393 444.373 225.795 445.926 229.048C448.341 234.346 452.301 238.787 457.283 241.783C462.449 244.61 468.268 246.017 474.15 245.86C486.101 245.86 495.2 241.194 501.45 231.862C507.699 222.53 510.824 209.509 510.824 192.799C510.824 176.659 507.801 164.025 501.753 154.896C495.707 145.767 486.713 141.203 474.772 141.203ZM477.666 212.947C474.339 217.782 469.131 220.2 462.042 220.2C459.12 220.335 456.206 219.77 453.545 218.552C450.883 217.333 448.549 215.496 446.737 213.193C443.042 208.542 441.2 202.174 441.21 194.09V192.204C441.21 183.994 443.052 177.708 446.737 173.347C450.421 168.986 455.522 166.829 462.042 166.878C469.257 166.878 474.498 169.174 477.767 173.768C481.037 178.361 482.672 184.768 482.672 192.987C482.692 201.487 481.032 208.141 477.695 212.947H477.666Z" fill="white"></path><path d="M203.75 218.689H105V242.942H203.75V218.689Z" fill="#FF4F00"></path></g><defs><clipPath id="clip0_189_448"><rect width="616" height="168" fill="white" transform="translate(105 104)"></rect></clipPath></defs></svg> 